<svg width="60" height="60" viewBox="0 0 60 60" fill="none" xmlns="http://www.w3.org/2000/svg">
<path d="M55.8381 4.16185C55.042 4.16289 54.2704 4.43734 53.6525 4.93926C53.0346 5.44117 52.6078 6.14011 52.4436 6.91908C52.0003 6.76836 51.5275 6.72561 51.0644 6.7944C50.6013 6.86319 50.1613 7.04152 49.781 7.31457C49.4006 7.58762 49.091 7.9475 48.8777 8.36431C48.6645 8.78111 48.5538 9.24279 48.5549 9.71098V11.9469C47.4121 12.5018 46.4483 13.3668 45.7737 14.4433C45.0991 15.5198 44.7408 16.7643 44.7398 18.0347V44.2197C44.7398 47.853 43.2965 51.3375 40.7274 53.9066C38.1582 56.4757 34.6737 57.9191 31.0404 57.9191C27.4071 57.9191 23.9226 56.4757 21.3535 53.9066C18.7843 51.3375 17.341 47.853 17.341 44.2197V33.7803C21.2896 33.5119 24.9893 31.7551 27.693 28.8647C30.3966 25.9744 31.9028 22.1658 31.9075 18.2081V3.64162C31.9075 3.36567 31.7979 3.10103 31.6027 2.9059C31.4076 2.71078 31.143 2.60116 30.867 2.60116H26.0316C25.8069 1.8503 25.3463 1.19182 24.7179 0.723302C24.0896 0.254783 23.3271 0.0011541 22.5433 0H20.8092C19.8434 2.03531e-08 18.9171 0.383669 18.2342 1.06661C17.5513 1.74954 17.1676 2.6758 17.1676 3.64162C17.1676 4.60744 17.5513 5.5337 18.2342 6.21663C18.9171 6.89957 19.8434 7.28324 20.8092 7.28324H22.5433C23.3271 7.28208 24.0896 7.02845 24.7179 6.55993C25.3463 6.09142 25.8069 5.43294 26.0316 4.68208H29.8266V18.2081C29.8266 21.7954 28.4015 25.2358 25.8649 27.7724C23.3283 30.309 19.8879 31.7341 16.3005 31.7341C12.7132 31.7341 9.27283 30.309 6.73621 27.7724C4.19959 25.2358 2.77453 21.7954 2.77453 18.2081V4.68208H6.56944C6.79417 5.43294 7.25483 6.09142 7.88314 6.55993C8.51146 7.02845 9.274 7.28208 10.0578 7.28324H11.7919C12.7577 7.28324 13.6839 6.89957 14.3669 6.21663C15.0498 5.5337 15.4335 4.60744 15.4335 3.64162C15.4335 2.6758 15.0498 1.74954 14.3669 1.06661C13.6839 0.383669 12.7577 2.03531e-08 11.7919 0H10.0578C9.274 0.0011541 8.51146 0.254783 7.88314 0.723302C7.25483 1.19182 6.79417 1.8503 6.56944 2.60116H1.73407C1.45812 2.60116 1.19347 2.71078 0.998349 2.9059C0.803225 3.10103 0.693604 3.36567 0.693604 3.64162V18.2081C0.692374 22.1672 2.19671 25.9787 4.90163 28.8697C7.60655 31.7608 11.3096 33.515 15.2601 33.7769V44.2197C15.2601 48.4049 16.9226 52.4187 19.882 55.378C22.8414 58.3374 26.8552 60 31.0404 60C35.2256 60 39.2394 58.3374 42.1988 55.378C45.1582 52.4187 46.8208 48.4049 46.8208 44.2197V18.0347C46.8216 17.3381 46.9777 16.6504 47.2777 16.0217C47.5776 15.3929 48.0139 14.8389 48.5549 14.4V14.9133C48.5538 15.3815 48.6645 15.8432 48.8777 16.26C49.091 16.6768 49.4006 17.0367 49.781 17.3097C50.1613 17.5828 50.6013 17.7611 51.0644 17.8299C51.5275 17.8987 52.0003 17.8559 52.4436 17.7052C52.6195 18.5449 53.1004 19.2896 53.7934 19.7954C54.4863 20.3012 55.3422 20.5322 56.1955 20.4438C57.0489 20.3554 57.8392 19.9538 58.4137 19.3167C58.9883 18.6796 59.3063 17.8521 59.3063 16.9942V7.63006C59.3053 6.71056 58.9395 5.82902 58.2893 5.17883C57.6392 4.52864 56.7576 4.16291 55.8381 4.16185ZM22.5433 5.20231H20.8092C20.3953 5.20231 19.9983 5.03788 19.7056 4.7452C19.4129 4.45251 19.2485 4.05554 19.2485 3.64162C19.2485 3.2277 19.4129 2.83073 19.7056 2.53804C19.9983 2.24535 20.3953 2.08092 20.8092 2.08092H22.5433C22.9572 2.08092 23.3542 2.24535 23.6469 2.53804C23.9396 2.83073 24.104 3.2277 24.104 3.64162C24.104 4.05554 23.9396 4.45251 23.6469 4.7452C23.3542 5.03788 22.9572 5.20231 22.5433 5.20231ZM10.0578 2.08092H11.7919C12.2058 2.08092 12.6028 2.24535 12.8954 2.53804C13.1881 2.83073 13.3526 3.2277 13.3526 3.64162C13.3526 4.05554 13.1881 4.45251 12.8954 4.7452C12.6028 5.03788 12.2058 5.20231 11.7919 5.20231H10.0578C9.64384 5.20231 9.24687 5.03788 8.95419 4.7452C8.6615 4.45251 8.49707 4.05554 8.49707 3.64162C8.49707 3.2277 8.6615 2.83073 8.95419 2.53804C9.24687 2.24535 9.64384 2.08092 10.0578 2.08092ZM51.5028 15.7803C51.273 15.7801 51.0526 15.6886 50.8901 15.5261C50.7275 15.3635 50.6361 15.1432 50.6358 14.9133V9.71098C50.6358 9.48103 50.7271 9.26049 50.8898 9.09788C51.0524 8.93528 51.2729 8.84393 51.5028 8.84393C51.7328 8.84393 51.9533 8.93528 52.1159 9.09788C52.2785 9.26049 52.3699 9.48103 52.3699 9.71098V14.9133C52.3696 15.1432 52.2782 15.3635 52.1156 15.5261C51.9531 15.6886 51.7327 15.7801 51.5028 15.7803ZM57.2254 16.9942C57.2254 17.3622 57.0792 17.715 56.8191 17.9752C56.5589 18.2353 56.206 18.3815 55.8381 18.3815C55.4702 18.3815 55.1173 18.2353 54.8572 17.9752C54.597 17.715 54.4508 17.3622 54.4508 16.9942V7.63006C54.4508 7.26213 54.597 6.90927 54.8572 6.6491C55.1173 6.38893 55.4702 6.24277 55.8381 6.24277C56.206 6.24277 56.5589 6.38893 56.8191 6.6491C57.0792 6.90927 57.2254 7.26213 57.2254 7.63006V16.9942Z" fill="#353535"/>
</svg>
