<svg width="61" height="44" viewBox="0 0 61 44" fill="none" xmlns="http://www.w3.org/2000/svg">
<path d="M44.6827 7.01508C39.9548 4.7912 35.2289 2.56287 30.5052 0.330078L0.845215 14.3101L5.92021 16.7601L5.50021 16.8276V43.0001H8.00021V18.9351L9.80021 18.6251L10.5002 18.9626V32.1826C10.5002 34.4676 23.5152 41.0151 26.1227 42.3051C27.4783 42.9705 28.9703 43.311 30.4804 43.2997C31.9905 43.2884 33.4772 42.9256 34.8227 42.2401C50.5002 34.2151 50.5002 32.7376 50.5002 32.1826V18.9626L60.1352 14.3201C60.1352 14.3201 50.6352 9.81758 44.6827 7.01508ZM48.0002 31.7601C43.4101 34.8153 38.6286 37.5726 33.6852 40.0151C32.6872 40.5244 31.5841 40.7942 30.4636 40.8028C29.3431 40.8115 28.236 40.5589 27.2302 40.0651C22.2689 37.7047 17.5096 34.9412 13.0002 31.8026V20.1651L30.5002 28.5976L48.0002 20.1651V31.7601ZM30.5002 25.8276L14.0402 17.8951L30.2127 15.1076L29.7877 12.6401L10.1627 16.0251L6.65521 14.3351L30.4977 3.09758C32.5602 4.08008 51.8052 13.1326 54.3527 14.3326L30.5002 25.8276Z" fill="white"/>
</svg>
